<svg xmlns="http://www.w3.org/2000/svg" viewBox="0 0 64 64" fill="none">
  <defs>
    <linearGradient id="bg" x1="10" y1="8" x2="54" y2="56" gradientUnits="userSpaceOnUse">
      <stop stop-color="#0f172a"/>
      <stop offset="1" stop-color="#1e293b"/>
    </linearGradient>
    <linearGradient id="accent" x1="18" y1="14" x2="46" y2="50" gradientUnits="userSpaceOnUse">
      <stop stop-color="#22c55e"/>
      <stop offset="1" stop-color="#06b6d4"/>
    </linearGradient>
    <linearGradient id="glow" x1="22" y1="20" x2="46" y2="44" gradientUnits="userSpaceOnUse">
      <stop stop-color="#86efac" stop-opacity=".95"/>
      <stop offset="1" stop-color="#67e8f9" stop-opacity=".95"/>
    </linearGradient>
  </defs>

  <rect x="6" y="6" width="52" height="52" rx="16" fill="url(#bg)"/>
  <rect x="17" y="13" width="30" height="38" rx="8" fill="rgba(255,255,255,.04)" stroke="url(#accent)" stroke-width="2.5"/>
  <path d="M24 24h16M24 31h16M24 38h10" stroke="url(#glow)" stroke-width="3" stroke-linecap="round"/>

  <rect x="41" y="25" width="12" height="12" rx="4" fill="url(#accent)" stroke="#dcfce7" stroke-opacity=".55" stroke-width="1.5"/>
  <circle cx="47" cy="31" r="2.4" fill="#ecfeff"/>
  <path d="M47 20v-4M47 46v-4M58 31h-4M40 31h-4M54.8 23.2l-2.8 2.8M42 36l-2.8 2.8M54.8 38.8 52 36M42 26l-2.8-2.8" stroke="#22c55e" stroke-width="2" stroke-linecap="round" stroke-opacity=".85"/>
</svg>
